<svg xmlns="http://www.w3.org/2000/svg" viewBox="0 0 16 16" shape-rendering="crispEdges">
  <rect width="16" height="16" fill="#7be7eb"/>
  <rect y="0" width="16" height="2" fill="#b8fff4"/>
  <rect x="13" y="0" width="3" height="6" fill="#3ee35f"/>
  <rect x="12" y="0" width="1" height="6" fill="#143d1e"/>
  <rect x="13" y="5" width="3" height="1" fill="#143d1e"/>
  <rect x="0" y="12" width="5" height="4" fill="#3ee35f"/>
  <rect x="0" y="11" width="5" height="1" fill="#143d1e"/>
  <rect x="4" y="12" width="1" height="4" fill="#143d1e"/>
  <rect x="2" y="3" width="1" height="1" fill="#ffd84f"/>
  <rect x="3" y="2" width="1" height="1" fill="#fff4be"/>
  <rect x="5" y="6" width="6" height="5" fill="#143d1e"/>
  <rect x="4" y="7" width="8" height="3" fill="#143d1e"/>
  <rect x="6" y="5" width="4" height="1" fill="#143d1e"/>
  <rect x="6" y="7" width="4" height="3" fill="#ffd84f"/>
  <rect x="5" y="8" width="6" height="1" fill="#ffd84f"/>
  <rect x="6" y="10" width="4" height="1" fill="#f2802d"/>
  <rect x="4" y="8" width="3" height="3" fill="#143d1e"/>
  <rect x="5" y="8" width="2" height="2" fill="#ffb836"/>
  <rect x="9" y="5" width="3" height="3" fill="#143d1e"/>
  <rect x="9" y="5" width="2" height="2" fill="#ffffff"/>
  <rect x="10" y="6" width="1" height="1" fill="#143d1e"/>
  <rect x="11" y="7" width="3" height="3" fill="#143d1e"/>
  <rect x="11" y="7" width="3" height="1" fill="#f2802d"/>
  <rect x="11" y="8" width="3" height="1" fill="#e04733"/>
  <rect x="7" y="11" width="4" height="1" fill="#143d1e"/>
  <rect x="8" y="11" width="2" height="1" fill="#f2802d"/>
</svg>